<mxfile host="app.diagrams.net" agent="Mozilla/5.0 (Windows NT 10.0; Win64; x64) AppleWebKit/537.36 (KHTML, like Gecko) Chrome/130.0.0.0 Safari/537.36 Edg/130.0.0.0" version="24.8.3">
  <diagram id="C5RBs43oDa-KdzZeNtuy" name="Page-1">
    <mxGraphModel dx="1489" dy="944" grid="1" gridSize="10" guides="1" tooltips="1" connect="1" arrows="1" fold="1" page="1" pageScale="1" pageWidth="1200" pageHeight="1920" math="0" shadow="0">
      <root>
        <mxCell id="WIyWlLk6GJQsqaUBKTNV-0" />
        <mxCell id="WIyWlLk6GJQsqaUBKTNV-1" parent="WIyWlLk6GJQsqaUBKTNV-0" />
        <mxCell id="WtuqhDMMWouuSi5TqvXi-1" value="" style="edgeStyle=orthogonalEdgeStyle;rounded=0;orthogonalLoop=1;jettySize=auto;fontStyle=1;fontSize=14;labelBorderColor=none;textShadow=0;html=1;" edge="1" parent="WIyWlLk6GJQsqaUBKTNV-1" source="WIyWlLk6GJQsqaUBKTNV-3" target="WtuqhDMMWouuSi5TqvXi-0">
          <mxGeometry relative="1" as="geometry" />
        </mxCell>
        <mxCell id="WtuqhDMMWouuSi5TqvXi-3" value="" style="edgeStyle=orthogonalEdgeStyle;rounded=0;orthogonalLoop=1;jettySize=auto;fontStyle=1;fontSize=14;labelBorderColor=none;textShadow=0;html=1;" edge="1" parent="WIyWlLk6GJQsqaUBKTNV-1" source="WIyWlLk6GJQsqaUBKTNV-3" target="WtuqhDMMWouuSi5TqvXi-2">
          <mxGeometry relative="1" as="geometry" />
        </mxCell>
        <mxCell id="WtuqhDMMWouuSi5TqvXi-5" value="" style="edgeStyle=orthogonalEdgeStyle;rounded=0;orthogonalLoop=1;jettySize=auto;fontStyle=1;fontSize=14;labelBorderColor=none;textShadow=0;html=1;" edge="1" parent="WIyWlLk6GJQsqaUBKTNV-1" source="WIyWlLk6GJQsqaUBKTNV-3" target="WtuqhDMMWouuSi5TqvXi-4">
          <mxGeometry relative="1" as="geometry" />
        </mxCell>
        <mxCell id="WtuqhDMMWouuSi5TqvXi-7" value="" style="edgeStyle=orthogonalEdgeStyle;rounded=0;orthogonalLoop=1;jettySize=auto;fontStyle=1;fontSize=14;labelBorderColor=none;textShadow=0;html=1;" edge="1" parent="WIyWlLk6GJQsqaUBKTNV-1" source="WIyWlLk6GJQsqaUBKTNV-3" target="WtuqhDMMWouuSi5TqvXi-6">
          <mxGeometry relative="1" as="geometry" />
        </mxCell>
        <mxCell id="WtuqhDMMWouuSi5TqvXi-9" value="" style="edgeStyle=orthogonalEdgeStyle;rounded=0;orthogonalLoop=1;jettySize=auto;fontStyle=1;fontSize=14;labelBorderColor=none;textShadow=0;html=1;" edge="1" parent="WIyWlLk6GJQsqaUBKTNV-1" source="WIyWlLk6GJQsqaUBKTNV-3" target="WtuqhDMMWouuSi5TqvXi-8">
          <mxGeometry relative="1" as="geometry" />
        </mxCell>
        <mxCell id="WtuqhDMMWouuSi5TqvXi-10" value="" style="edgeStyle=orthogonalEdgeStyle;rounded=0;orthogonalLoop=1;jettySize=auto;fontStyle=1;fontSize=14;labelBorderColor=none;textShadow=0;html=1;" edge="1" parent="WIyWlLk6GJQsqaUBKTNV-1" source="WIyWlLk6GJQsqaUBKTNV-3" target="WtuqhDMMWouuSi5TqvXi-8">
          <mxGeometry relative="1" as="geometry" />
        </mxCell>
        <mxCell id="WtuqhDMMWouuSi5TqvXi-11" value="" style="edgeStyle=orthogonalEdgeStyle;rounded=0;orthogonalLoop=1;jettySize=auto;fontStyle=1;fontSize=14;labelBorderColor=none;textShadow=0;html=1;" edge="1" parent="WIyWlLk6GJQsqaUBKTNV-1" source="WIyWlLk6GJQsqaUBKTNV-3" target="WtuqhDMMWouuSi5TqvXi-8">
          <mxGeometry relative="1" as="geometry" />
        </mxCell>
        <mxCell id="WtuqhDMMWouuSi5TqvXi-13" value="" style="edgeStyle=orthogonalEdgeStyle;rounded=0;orthogonalLoop=1;jettySize=auto;fontStyle=1;fontSize=14;labelBorderColor=none;textShadow=0;html=1;" edge="1" parent="WIyWlLk6GJQsqaUBKTNV-1" source="WIyWlLk6GJQsqaUBKTNV-3" target="WtuqhDMMWouuSi5TqvXi-12">
          <mxGeometry relative="1" as="geometry" />
        </mxCell>
        <mxCell id="WIyWlLk6GJQsqaUBKTNV-3" value="Pacientes" style="rounded=1;fontSize=14;glass=0;strokeWidth=1;shadow=0;fillColor=#dae8fc;strokeColor=#6c8ebf;fontStyle=1;labelBorderColor=none;textShadow=0;whiteSpace=wrap;html=1;" parent="WIyWlLk6GJQsqaUBKTNV-1" vertex="1">
          <mxGeometry x="550" y="160" width="120" height="40" as="geometry" />
        </mxCell>
        <mxCell id="WtuqhDMMWouuSi5TqvXi-0" value=" id_paciente" style="rounded=1;fontSize=14;glass=0;strokeWidth=1;shadow=0;fillColor=#e1d5e7;strokeColor=#9673a6;fontStyle=1;labelBorderColor=none;textShadow=0;whiteSpace=wrap;html=1;" vertex="1" parent="WIyWlLk6GJQsqaUBKTNV-1">
          <mxGeometry x="340" y="160" width="120" height="40" as="geometry" />
        </mxCell>
        <mxCell id="WtuqhDMMWouuSi5TqvXi-2" value="nombre" style="rounded=1;fontSize=14;glass=0;strokeWidth=1;shadow=0;fillColor=#d5e8d4;strokeColor=#82b366;fontStyle=1;labelBorderColor=none;textShadow=0;whiteSpace=wrap;html=1;" vertex="1" parent="WIyWlLk6GJQsqaUBKTNV-1">
          <mxGeometry x="420" y="100" width="120" height="40" as="geometry" />
        </mxCell>
        <mxCell id="WtuqhDMMWouuSi5TqvXi-4" value="telefono" style="rounded=1;fontSize=14;glass=0;strokeWidth=1;shadow=0;fillColor=#d5e8d4;strokeColor=#82b366;fontStyle=1;labelBorderColor=none;textShadow=0;whiteSpace=wrap;html=1;" vertex="1" parent="WIyWlLk6GJQsqaUBKTNV-1">
          <mxGeometry x="690" y="100" width="120" height="40" as="geometry" />
        </mxCell>
        <mxCell id="WtuqhDMMWouuSi5TqvXi-6" value="direccion" style="rounded=1;fontSize=14;glass=0;strokeWidth=1;shadow=0;fillColor=#d5e8d4;strokeColor=#82b366;fontStyle=1;labelBorderColor=none;textShadow=0;whiteSpace=wrap;html=1;" vertex="1" parent="WIyWlLk6GJQsqaUBKTNV-1">
          <mxGeometry x="760" y="160" width="120" height="40" as="geometry" />
        </mxCell>
        <mxCell id="WtuqhDMMWouuSi5TqvXi-8" value="fecha&lt;div&gt;nacimiento&lt;/div&gt;" style="rounded=1;fontSize=14;glass=0;strokeWidth=1;shadow=0;fillColor=#d5e8d4;strokeColor=#82b366;fontStyle=1;labelBorderColor=none;textShadow=0;whiteSpace=wrap;html=1;" vertex="1" parent="WIyWlLk6GJQsqaUBKTNV-1">
          <mxGeometry x="620" y="40" width="120" height="40" as="geometry" />
        </mxCell>
        <mxCell id="WtuqhDMMWouuSi5TqvXi-12" value="apellido" style="rounded=1;fontSize=14;glass=0;strokeWidth=1;shadow=0;fillColor=#d5e8d4;strokeColor=#82b366;fontStyle=1;labelBorderColor=none;textShadow=0;whiteSpace=wrap;html=1;" vertex="1" parent="WIyWlLk6GJQsqaUBKTNV-1">
          <mxGeometry x="490" y="40" width="120" height="40" as="geometry" />
        </mxCell>
        <mxCell id="WtuqhDMMWouuSi5TqvXi-22" value="" style="edgeStyle=orthogonalEdgeStyle;rounded=0;orthogonalLoop=1;jettySize=auto;fontStyle=1;fontSize=14;labelBorderColor=none;textShadow=0;html=1;" edge="1" parent="WIyWlLk6GJQsqaUBKTNV-1" source="WtuqhDMMWouuSi5TqvXi-18" target="WtuqhDMMWouuSi5TqvXi-21">
          <mxGeometry relative="1" as="geometry" />
        </mxCell>
        <mxCell id="WtuqhDMMWouuSi5TqvXi-24" value="" style="edgeStyle=orthogonalEdgeStyle;rounded=0;orthogonalLoop=1;jettySize=auto;fontStyle=1;fontSize=14;labelBorderColor=none;textShadow=0;html=1;" edge="1" parent="WIyWlLk6GJQsqaUBKTNV-1" source="WtuqhDMMWouuSi5TqvXi-18" target="WtuqhDMMWouuSi5TqvXi-23">
          <mxGeometry relative="1" as="geometry" />
        </mxCell>
        <mxCell id="WtuqhDMMWouuSi5TqvXi-26" value="" style="edgeStyle=orthogonalEdgeStyle;rounded=0;orthogonalLoop=1;jettySize=auto;fontStyle=1;fontSize=14;labelBorderColor=none;textShadow=0;html=1;" edge="1" parent="WIyWlLk6GJQsqaUBKTNV-1" source="WtuqhDMMWouuSi5TqvXi-18" target="WtuqhDMMWouuSi5TqvXi-25">
          <mxGeometry relative="1" as="geometry" />
        </mxCell>
        <mxCell id="WtuqhDMMWouuSi5TqvXi-28" value="" style="edgeStyle=orthogonalEdgeStyle;rounded=0;orthogonalLoop=1;jettySize=auto;fontStyle=1;fontSize=14;labelBorderColor=none;textShadow=0;html=1;" edge="1" parent="WIyWlLk6GJQsqaUBKTNV-1" source="WtuqhDMMWouuSi5TqvXi-18" target="WtuqhDMMWouuSi5TqvXi-27">
          <mxGeometry relative="1" as="geometry" />
        </mxCell>
        <mxCell id="WtuqhDMMWouuSi5TqvXi-30" value="" style="edgeStyle=orthogonalEdgeStyle;rounded=0;orthogonalLoop=1;jettySize=auto;fontStyle=1;fontSize=14;labelBorderColor=none;textShadow=0;html=1;" edge="1" parent="WIyWlLk6GJQsqaUBKTNV-1" source="WtuqhDMMWouuSi5TqvXi-18" target="WtuqhDMMWouuSi5TqvXi-29">
          <mxGeometry relative="1" as="geometry" />
        </mxCell>
        <mxCell id="WtuqhDMMWouuSi5TqvXi-18" value="Citas" style="rounded=1;fillColor=#dae8fc;strokeColor=#6c8ebf;shadow=0;strokeWidth=1;spacing=6;spacingTop=-4;fontStyle=1;fontSize=14;labelBorderColor=none;textShadow=0;whiteSpace=wrap;html=1;" vertex="1" parent="WIyWlLk6GJQsqaUBKTNV-1">
          <mxGeometry x="760" y="350" width="120" height="40" as="geometry" />
        </mxCell>
        <mxCell id="WtuqhDMMWouuSi5TqvXi-21" value="id_cita" style="rounded=1;fillColor=#e1d5e7;strokeColor=#9673a6;shadow=0;strokeWidth=1;spacing=6;spacingTop=-4;fontStyle=1;fontSize=14;labelBorderColor=none;textShadow=0;whiteSpace=wrap;html=1;" vertex="1" parent="WIyWlLk6GJQsqaUBKTNV-1">
          <mxGeometry x="760" y="280" width="120" height="40" as="geometry" />
        </mxCell>
        <mxCell id="WtuqhDMMWouuSi5TqvXi-23" value="motivo" style="rounded=1;fillColor=#d5e8d4;strokeColor=#82b366;shadow=0;strokeWidth=1;spacing=6;spacingTop=-4;fontStyle=1;fontSize=14;labelBorderColor=none;textShadow=0;whiteSpace=wrap;html=1;" vertex="1" parent="WIyWlLk6GJQsqaUBKTNV-1">
          <mxGeometry x="760" y="440" width="120" height="40" as="geometry" />
        </mxCell>
        <mxCell id="WtuqhDMMWouuSi5TqvXi-25" value="fecha_hora" style="rounded=1;fillColor=#d5e8d4;strokeColor=#82b366;shadow=0;strokeWidth=1;spacing=6;spacingTop=-4;fontStyle=1;fontSize=14;labelBorderColor=none;textShadow=0;whiteSpace=wrap;html=1;" vertex="1" parent="WIyWlLk6GJQsqaUBKTNV-1">
          <mxGeometry x="900" y="440" width="120" height="40" as="geometry" />
        </mxCell>
        <mxCell id="WtuqhDMMWouuSi5TqvXi-27" value="id_doctor" style="rounded=1;fillColor=#d5e8d4;strokeColor=#82b366;shadow=0;strokeWidth=1;spacing=6;spacingTop=-4;fontStyle=1;fontSize=14;labelBorderColor=none;textShadow=0;whiteSpace=wrap;html=1;" vertex="1" parent="WIyWlLk6GJQsqaUBKTNV-1">
          <mxGeometry x="980" y="350" width="120" height="40" as="geometry" />
        </mxCell>
        <mxCell id="WtuqhDMMWouuSi5TqvXi-29" value="id_paciente" style="rounded=1;fillColor=#d5e8d4;strokeColor=#82b366;shadow=0;strokeWidth=1;spacing=6;spacingTop=-4;fontStyle=1;fontSize=14;labelBorderColor=none;textShadow=0;whiteSpace=wrap;html=1;" vertex="1" parent="WIyWlLk6GJQsqaUBKTNV-1">
          <mxGeometry x="900" y="280" width="120" height="40" as="geometry" />
        </mxCell>
        <mxCell id="WtuqhDMMWouuSi5TqvXi-34" value="" style="edgeStyle=orthogonalEdgeStyle;rounded=0;orthogonalLoop=1;jettySize=auto;fontStyle=1;fontSize=14;labelBorderColor=none;textShadow=0;html=1;" edge="1" parent="WIyWlLk6GJQsqaUBKTNV-1" source="WtuqhDMMWouuSi5TqvXi-31" target="WtuqhDMMWouuSi5TqvXi-33">
          <mxGeometry relative="1" as="geometry" />
        </mxCell>
        <mxCell id="WtuqhDMMWouuSi5TqvXi-36" value="" style="edgeStyle=orthogonalEdgeStyle;rounded=0;orthogonalLoop=1;jettySize=auto;fontStyle=1;fontSize=14;labelBorderColor=none;textShadow=0;html=1;" edge="1" parent="WIyWlLk6GJQsqaUBKTNV-1" source="WtuqhDMMWouuSi5TqvXi-31" target="WtuqhDMMWouuSi5TqvXi-35">
          <mxGeometry relative="1" as="geometry" />
        </mxCell>
        <mxCell id="WtuqhDMMWouuSi5TqvXi-38" value="" style="edgeStyle=orthogonalEdgeStyle;rounded=0;orthogonalLoop=1;jettySize=auto;fontStyle=1;fontSize=14;labelBorderColor=none;textShadow=0;html=1;" edge="1" parent="WIyWlLk6GJQsqaUBKTNV-1" source="WtuqhDMMWouuSi5TqvXi-31" target="WtuqhDMMWouuSi5TqvXi-37">
          <mxGeometry relative="1" as="geometry" />
        </mxCell>
        <mxCell id="WtuqhDMMWouuSi5TqvXi-40" value="" style="edgeStyle=orthogonalEdgeStyle;rounded=0;orthogonalLoop=1;jettySize=auto;fontStyle=1;fontSize=14;labelBorderColor=none;textShadow=0;html=1;" edge="1" parent="WIyWlLk6GJQsqaUBKTNV-1" source="WtuqhDMMWouuSi5TqvXi-31" target="WtuqhDMMWouuSi5TqvXi-39">
          <mxGeometry relative="1" as="geometry" />
        </mxCell>
        <mxCell id="WtuqhDMMWouuSi5TqvXi-42" value="" style="edgeStyle=orthogonalEdgeStyle;rounded=0;orthogonalLoop=1;jettySize=auto;fontStyle=1;fontSize=14;labelBorderColor=none;textShadow=0;html=1;" edge="1" parent="WIyWlLk6GJQsqaUBKTNV-1" source="WtuqhDMMWouuSi5TqvXi-31" target="WtuqhDMMWouuSi5TqvXi-41">
          <mxGeometry relative="1" as="geometry" />
        </mxCell>
        <mxCell id="WtuqhDMMWouuSi5TqvXi-31" value="historial_clinico" style="rounded=1;fillColor=#dae8fc;strokeColor=#6c8ebf;shadow=0;strokeWidth=1;spacing=6;spacingTop=-4;fontStyle=1;fontSize=14;labelBorderColor=none;textShadow=0;whiteSpace=wrap;html=1;" vertex="1" parent="WIyWlLk6GJQsqaUBKTNV-1">
          <mxGeometry x="280" y="350" width="120" height="40" as="geometry" />
        </mxCell>
        <mxCell id="WtuqhDMMWouuSi5TqvXi-33" value="id_historial" style="rounded=1;fillColor=#e1d5e7;strokeColor=#9673a6;shadow=0;strokeWidth=1;spacing=6;spacingTop=-4;fontStyle=1;fontSize=14;labelBorderColor=none;textShadow=0;whiteSpace=wrap;html=1;" vertex="1" parent="WIyWlLk6GJQsqaUBKTNV-1">
          <mxGeometry x="280" y="270" width="120" height="40" as="geometry" />
        </mxCell>
        <mxCell id="WtuqhDMMWouuSi5TqvXi-35" value="id_paciente" style="rounded=1;fillColor=#d5e8d4;strokeColor=#82b366;shadow=0;strokeWidth=1;spacing=6;spacingTop=-4;fontStyle=1;fontSize=14;labelBorderColor=none;textShadow=0;whiteSpace=wrap;html=1;" vertex="1" parent="WIyWlLk6GJQsqaUBKTNV-1">
          <mxGeometry x="150" y="270" width="120" height="40" as="geometry" />
        </mxCell>
        <mxCell id="WtuqhDMMWouuSi5TqvXi-37" value="alergias" style="rounded=1;fillColor=#d5e8d4;strokeColor=#82b366;shadow=0;strokeWidth=1;spacing=6;spacingTop=-4;fontStyle=1;fontSize=14;labelBorderColor=none;textShadow=0;whiteSpace=wrap;html=1;" vertex="1" parent="WIyWlLk6GJQsqaUBKTNV-1">
          <mxGeometry x="150" y="440" width="120" height="40" as="geometry" />
        </mxCell>
        <mxCell id="WtuqhDMMWouuSi5TqvXi-39" value="medicamentos&lt;br&gt;habituales" style="rounded=1;fillColor=#d5e8d4;strokeColor=#82b366;shadow=0;strokeWidth=1;spacing=6;spacingTop=-4;fontStyle=1;fontSize=14;labelBorderColor=none;textShadow=0;whiteSpace=wrap;html=1;" vertex="1" parent="WIyWlLk6GJQsqaUBKTNV-1">
          <mxGeometry x="280" y="440" width="120" height="40" as="geometry" />
        </mxCell>
        <mxCell id="WtuqhDMMWouuSi5TqvXi-41" value="enfermedades&lt;br&gt;previas" style="rounded=1;fillColor=#d5e8d4;strokeColor=#82b366;shadow=0;strokeWidth=1;spacing=6;spacingTop=-4;fontStyle=1;fontSize=14;labelBorderColor=none;textShadow=0;whiteSpace=wrap;html=1;" vertex="1" parent="WIyWlLk6GJQsqaUBKTNV-1">
          <mxGeometry x="20" y="350" width="120" height="40" as="geometry" />
        </mxCell>
        <mxCell id="WtuqhDMMWouuSi5TqvXi-46" value="" style="edgeStyle=orthogonalEdgeStyle;rounded=0;orthogonalLoop=1;jettySize=auto;fontStyle=1;fontSize=14;labelBorderColor=none;textShadow=0;html=1;" edge="1" parent="WIyWlLk6GJQsqaUBKTNV-1" source="WtuqhDMMWouuSi5TqvXi-43" target="WtuqhDMMWouuSi5TqvXi-45">
          <mxGeometry relative="1" as="geometry" />
        </mxCell>
        <mxCell id="WtuqhDMMWouuSi5TqvXi-48" value="" style="edgeStyle=orthogonalEdgeStyle;rounded=0;orthogonalLoop=1;jettySize=auto;fontStyle=1;fontSize=14;labelBorderColor=none;textShadow=0;html=1;" edge="1" parent="WIyWlLk6GJQsqaUBKTNV-1" source="WtuqhDMMWouuSi5TqvXi-43" target="WtuqhDMMWouuSi5TqvXi-47">
          <mxGeometry relative="1" as="geometry" />
        </mxCell>
        <mxCell id="WtuqhDMMWouuSi5TqvXi-50" value="" style="edgeStyle=orthogonalEdgeStyle;rounded=0;orthogonalLoop=1;jettySize=auto;fontStyle=1;fontSize=14;labelBorderColor=none;textShadow=0;html=1;" edge="1" parent="WIyWlLk6GJQsqaUBKTNV-1" source="WtuqhDMMWouuSi5TqvXi-43" target="WtuqhDMMWouuSi5TqvXi-49">
          <mxGeometry relative="1" as="geometry" />
        </mxCell>
        <mxCell id="WtuqhDMMWouuSi5TqvXi-53" value="" style="edgeStyle=orthogonalEdgeStyle;rounded=0;orthogonalLoop=1;jettySize=auto;fontStyle=1;fontSize=14;labelBorderColor=none;textShadow=0;html=1;" edge="1" parent="WIyWlLk6GJQsqaUBKTNV-1" source="WtuqhDMMWouuSi5TqvXi-43" target="WtuqhDMMWouuSi5TqvXi-52">
          <mxGeometry relative="1" as="geometry" />
        </mxCell>
        <mxCell id="WtuqhDMMWouuSi5TqvXi-55" value="" style="edgeStyle=orthogonalEdgeStyle;rounded=0;orthogonalLoop=1;jettySize=auto;fontStyle=1;fontSize=14;labelBorderColor=none;textShadow=0;html=1;" edge="1" parent="WIyWlLk6GJQsqaUBKTNV-1" source="WtuqhDMMWouuSi5TqvXi-43" target="WtuqhDMMWouuSi5TqvXi-54">
          <mxGeometry relative="1" as="geometry" />
        </mxCell>
        <mxCell id="WtuqhDMMWouuSi5TqvXi-57" value="" style="edgeStyle=orthogonalEdgeStyle;rounded=0;orthogonalLoop=1;jettySize=auto;fontStyle=1;fontSize=14;labelBorderColor=none;textShadow=0;html=1;" edge="1" parent="WIyWlLk6GJQsqaUBKTNV-1" source="WtuqhDMMWouuSi5TqvXi-43" target="WtuqhDMMWouuSi5TqvXi-56">
          <mxGeometry relative="1" as="geometry" />
        </mxCell>
        <mxCell id="WtuqhDMMWouuSi5TqvXi-59" value="" style="edgeStyle=orthogonalEdgeStyle;rounded=0;orthogonalLoop=1;jettySize=auto;fontStyle=1;fontSize=14;labelBorderColor=none;textShadow=0;html=1;" edge="1" parent="WIyWlLk6GJQsqaUBKTNV-1" source="WtuqhDMMWouuSi5TqvXi-43">
          <mxGeometry relative="1" as="geometry">
            <mxPoint x="120" y="730" as="targetPoint" />
          </mxGeometry>
        </mxCell>
        <mxCell id="WtuqhDMMWouuSi5TqvXi-43" value="consultas" style="rounded=1;shadow=0;strokeWidth=1;spacing=6;spacingTop=-4;fillColor=#dae8fc;strokeColor=#6c8ebf;fontStyle=1;fontSize=14;labelBorderColor=none;textShadow=0;whiteSpace=wrap;html=1;" vertex="1" parent="WIyWlLk6GJQsqaUBKTNV-1">
          <mxGeometry x="340" y="710" width="120" height="40" as="geometry" />
        </mxCell>
        <mxCell id="WtuqhDMMWouuSi5TqvXi-45" value="id_doctor" style="rounded=1;shadow=0;strokeWidth=1;spacing=6;spacingTop=-4;fillColor=#d5e8d4;strokeColor=#82b366;fontStyle=1;fontSize=14;labelBorderColor=none;textShadow=0;whiteSpace=wrap;html=1;" vertex="1" parent="WIyWlLk6GJQsqaUBKTNV-1">
          <mxGeometry x="110" y="660" width="120" height="40" as="geometry" />
        </mxCell>
        <mxCell id="WtuqhDMMWouuSi5TqvXi-47" value="id_paciente" style="rounded=1;shadow=0;strokeWidth=1;spacing=6;spacingTop=-4;fillColor=#d5e8d4;strokeColor=#82b366;fontStyle=1;fontSize=14;labelBorderColor=none;textShadow=0;whiteSpace=wrap;html=1;" vertex="1" parent="WIyWlLk6GJQsqaUBKTNV-1">
          <mxGeometry x="210" y="610" width="120" height="40" as="geometry" />
        </mxCell>
        <mxCell id="WtuqhDMMWouuSi5TqvXi-49" value="tratamiento" style="rounded=1;shadow=0;strokeWidth=1;spacing=6;spacingTop=-4;fillColor=#d5e8d4;strokeColor=#82b366;fontStyle=1;fontSize=14;labelBorderColor=none;textShadow=0;whiteSpace=wrap;html=1;" vertex="1" parent="WIyWlLk6GJQsqaUBKTNV-1">
          <mxGeometry x="210" y="810" width="120" height="40" as="geometry" />
        </mxCell>
        <mxCell id="WtuqhDMMWouuSi5TqvXi-52" value="diagnostico" style="rounded=1;shadow=0;strokeWidth=1;spacing=6;spacingTop=-4;fillColor=#d5e8d4;strokeColor=#82b366;fontStyle=1;fontSize=14;labelBorderColor=none;textShadow=0;whiteSpace=wrap;html=1;" vertex="1" parent="WIyWlLk6GJQsqaUBKTNV-1">
          <mxGeometry x="110" y="760" width="120" height="40" as="geometry" />
        </mxCell>
        <mxCell id="WtuqhDMMWouuSi5TqvXi-54" value="observaciones" style="rounded=1;shadow=0;strokeWidth=1;spacing=6;spacingTop=-4;fillColor=#d5e8d4;strokeColor=#82b366;fontStyle=1;fontSize=14;labelBorderColor=none;textShadow=0;whiteSpace=wrap;html=1;" vertex="1" parent="WIyWlLk6GJQsqaUBKTNV-1">
          <mxGeometry x="340" y="820" width="120" height="40" as="geometry" />
        </mxCell>
        <mxCell id="WtuqhDMMWouuSi5TqvXi-56" value="id_consulta" style="rounded=1;shadow=0;strokeWidth=1;spacing=6;spacingTop=-4;fillColor=#e1d5e7;strokeColor=#9673a6;fontStyle=1;fontSize=14;labelBorderColor=none;textShadow=0;whiteSpace=wrap;html=1;" vertex="1" parent="WIyWlLk6GJQsqaUBKTNV-1">
          <mxGeometry x="340" y="600" width="120" height="40" as="geometry" />
        </mxCell>
        <mxCell id="WtuqhDMMWouuSi5TqvXi-58" value="fecha" style="rounded=1;shadow=0;strokeWidth=1;spacing=6;spacingTop=-4;fillColor=#d5e8d4;strokeColor=#82b366;fontStyle=1;fontSize=14;labelBorderColor=none;textShadow=0;whiteSpace=wrap;html=1;" vertex="1" parent="WIyWlLk6GJQsqaUBKTNV-1">
          <mxGeometry x="20" y="710" width="120" height="40" as="geometry" />
        </mxCell>
        <mxCell id="WtuqhDMMWouuSi5TqvXi-61" value="" style="endArrow=none;rounded=0;exitX=0.75;exitY=1;exitDx=0;exitDy=0;entryX=0.5;entryY=0;entryDx=0;entryDy=0;fontStyle=1;fontSize=14;labelBorderColor=none;textShadow=0;html=1;" edge="1" parent="WIyWlLk6GJQsqaUBKTNV-1" source="WIyWlLk6GJQsqaUBKTNV-3" target="WtuqhDMMWouuSi5TqvXi-103">
          <mxGeometry relative="1" as="geometry">
            <mxPoint x="620" y="240" as="sourcePoint" />
            <mxPoint x="660" y="310" as="targetPoint" />
          </mxGeometry>
        </mxCell>
        <mxCell id="WtuqhDMMWouuSi5TqvXi-62" value="1" style="resizable=0;whiteSpace=wrap;align=right;verticalAlign=bottom;fontStyle=1;fontSize=14;labelBorderColor=none;textShadow=0;html=1;" connectable="0" vertex="1" parent="WtuqhDMMWouuSi5TqvXi-61">
          <mxGeometry x="1" relative="1" as="geometry">
            <mxPoint x="20" as="offset" />
          </mxGeometry>
        </mxCell>
        <mxCell id="WtuqhDMMWouuSi5TqvXi-63" value="" style="endArrow=none;rounded=0;entryX=0;entryY=0.5;entryDx=0;entryDy=0;exitX=1;exitY=0.5;exitDx=0;exitDy=0;fontStyle=1;fontSize=14;labelBorderColor=none;textShadow=0;html=1;" edge="1" parent="WIyWlLk6GJQsqaUBKTNV-1" source="WtuqhDMMWouuSi5TqvXi-103" target="WtuqhDMMWouuSi5TqvXi-18">
          <mxGeometry relative="1" as="geometry">
            <mxPoint x="690" y="370" as="sourcePoint" />
            <mxPoint x="670" y="410" as="targetPoint" />
          </mxGeometry>
        </mxCell>
        <mxCell id="WtuqhDMMWouuSi5TqvXi-64" value="M" style="resizable=0;whiteSpace=wrap;align=left;verticalAlign=bottom;fontStyle=1;fontSize=14;labelBorderColor=none;textShadow=0;html=1;" connectable="0" vertex="1" parent="WtuqhDMMWouuSi5TqvXi-63">
          <mxGeometry x="-1" relative="1" as="geometry" />
        </mxCell>
        <mxCell id="WtuqhDMMWouuSi5TqvXi-66" value="" style="edgeStyle=orthogonalEdgeStyle;rounded=0;orthogonalLoop=1;jettySize=auto;fontStyle=1;fontSize=14;labelBorderColor=none;textShadow=0;html=1;" edge="1" parent="WIyWlLk6GJQsqaUBKTNV-1" source="WtuqhDMMWouuSi5TqvXi-74" target="WtuqhDMMWouuSi5TqvXi-75">
          <mxGeometry relative="1" as="geometry" />
        </mxCell>
        <mxCell id="WtuqhDMMWouuSi5TqvXi-67" value="" style="edgeStyle=orthogonalEdgeStyle;rounded=0;orthogonalLoop=1;jettySize=auto;fontStyle=1;fontSize=14;labelBorderColor=none;textShadow=0;html=1;" edge="1" parent="WIyWlLk6GJQsqaUBKTNV-1" source="WtuqhDMMWouuSi5TqvXi-74" target="WtuqhDMMWouuSi5TqvXi-76">
          <mxGeometry relative="1" as="geometry" />
        </mxCell>
        <mxCell id="WtuqhDMMWouuSi5TqvXi-68" value="" style="edgeStyle=orthogonalEdgeStyle;rounded=0;orthogonalLoop=1;jettySize=auto;fontStyle=1;fontSize=14;labelBorderColor=none;textShadow=0;html=1;" edge="1" parent="WIyWlLk6GJQsqaUBKTNV-1" source="WtuqhDMMWouuSi5TqvXi-74" target="WtuqhDMMWouuSi5TqvXi-77">
          <mxGeometry relative="1" as="geometry" />
        </mxCell>
        <mxCell id="WtuqhDMMWouuSi5TqvXi-69" value="" style="edgeStyle=orthogonalEdgeStyle;rounded=0;orthogonalLoop=1;jettySize=auto;fontStyle=1;fontSize=14;labelBorderColor=none;textShadow=0;html=1;" edge="1" parent="WIyWlLk6GJQsqaUBKTNV-1" source="WtuqhDMMWouuSi5TqvXi-74" target="WtuqhDMMWouuSi5TqvXi-78">
          <mxGeometry relative="1" as="geometry" />
        </mxCell>
        <mxCell id="WtuqhDMMWouuSi5TqvXi-73" value="" style="edgeStyle=orthogonalEdgeStyle;rounded=0;orthogonalLoop=1;jettySize=auto;fontStyle=1;fontSize=14;labelBorderColor=none;textShadow=0;html=1;" edge="1" parent="WIyWlLk6GJQsqaUBKTNV-1" source="WtuqhDMMWouuSi5TqvXi-74" target="WtuqhDMMWouuSi5TqvXi-80">
          <mxGeometry relative="1" as="geometry" />
        </mxCell>
        <mxCell id="WtuqhDMMWouuSi5TqvXi-74" value="Doctores" style="rounded=1;fontSize=14;glass=0;strokeWidth=1;shadow=0;fillColor=#dae8fc;strokeColor=#6c8ebf;fontStyle=1;labelBorderColor=none;textShadow=0;whiteSpace=wrap;html=1;" vertex="1" parent="WIyWlLk6GJQsqaUBKTNV-1">
          <mxGeometry x="730" y="620" width="120" height="40" as="geometry" />
        </mxCell>
        <mxCell id="WtuqhDMMWouuSi5TqvXi-75" value=" id_doctor" style="rounded=1;fontSize=14;glass=0;strokeWidth=1;shadow=0;fillColor=#e1d5e7;strokeColor=#9673a6;fontStyle=1;labelBorderColor=none;textShadow=0;whiteSpace=wrap;html=1;" vertex="1" parent="WIyWlLk6GJQsqaUBKTNV-1">
          <mxGeometry x="730" y="540" width="120" height="40" as="geometry" />
        </mxCell>
        <mxCell id="WtuqhDMMWouuSi5TqvXi-76" value="nombre" style="rounded=1;fontSize=14;glass=0;strokeWidth=1;shadow=0;fillColor=#d5e8d4;strokeColor=#82b366;fontStyle=1;labelBorderColor=none;textShadow=0;whiteSpace=wrap;html=1;" vertex="1" parent="WIyWlLk6GJQsqaUBKTNV-1">
          <mxGeometry x="730" y="730" width="120" height="40" as="geometry" />
        </mxCell>
        <mxCell id="WtuqhDMMWouuSi5TqvXi-77" value="telefono" style="rounded=1;fontSize=14;glass=0;strokeWidth=1;shadow=0;fillColor=#d5e8d4;strokeColor=#82b366;fontStyle=1;labelBorderColor=none;textShadow=0;whiteSpace=wrap;html=1;" vertex="1" parent="WIyWlLk6GJQsqaUBKTNV-1">
          <mxGeometry x="1010" y="620" width="120" height="40" as="geometry" />
        </mxCell>
        <mxCell id="WtuqhDMMWouuSi5TqvXi-78" value="email" style="rounded=1;fontSize=14;glass=0;strokeWidth=1;shadow=0;fillColor=#d5e8d4;strokeColor=#82b366;fontStyle=1;labelBorderColor=none;textShadow=0;whiteSpace=wrap;html=1;" vertex="1" parent="WIyWlLk6GJQsqaUBKTNV-1">
          <mxGeometry x="860" y="560" width="120" height="40" as="geometry" />
        </mxCell>
        <mxCell id="WtuqhDMMWouuSi5TqvXi-80" value="apellido" style="rounded=1;fontSize=14;glass=0;strokeWidth=1;shadow=0;fillColor=#d5e8d4;strokeColor=#82b366;fontStyle=1;labelBorderColor=none;textShadow=0;whiteSpace=wrap;html=1;" vertex="1" parent="WIyWlLk6GJQsqaUBKTNV-1">
          <mxGeometry x="860" y="690" width="120" height="40" as="geometry" />
        </mxCell>
        <mxCell id="WtuqhDMMWouuSi5TqvXi-85" value="" style="endArrow=none;rounded=0;exitX=0;exitY=0.25;exitDx=0;exitDy=0;entryX=0.5;entryY=1;entryDx=0;entryDy=0;fontStyle=1;fontSize=14;labelBorderColor=none;textShadow=0;html=1;" edge="1" parent="WIyWlLk6GJQsqaUBKTNV-1" source="WtuqhDMMWouuSi5TqvXi-74" target="WtuqhDMMWouuSi5TqvXi-103">
          <mxGeometry relative="1" as="geometry">
            <mxPoint x="720" y="640" as="sourcePoint" />
            <mxPoint x="660" y="440" as="targetPoint" />
            <Array as="points">
              <mxPoint x="640" y="630" />
            </Array>
          </mxGeometry>
        </mxCell>
        <mxCell id="WtuqhDMMWouuSi5TqvXi-86" value="1" style="resizable=0;whiteSpace=wrap;align=right;verticalAlign=bottom;fontStyle=1;fontSize=14;labelBorderColor=none;textShadow=0;html=1;" connectable="0" vertex="1" parent="WtuqhDMMWouuSi5TqvXi-85">
          <mxGeometry x="1" relative="1" as="geometry">
            <mxPoint x="20" y="20" as="offset" />
          </mxGeometry>
        </mxCell>
        <mxCell id="WtuqhDMMWouuSi5TqvXi-95" value="" style="edgeStyle=orthogonalEdgeStyle;rounded=0;orthogonalLoop=1;jettySize=auto;fontStyle=1;fontSize=14;labelBorderColor=none;textShadow=0;html=1;" edge="1" parent="WIyWlLk6GJQsqaUBKTNV-1" target="WtuqhDMMWouuSi5TqvXi-43">
          <mxGeometry relative="1" as="geometry">
            <mxPoint x="560" y="730" as="sourcePoint" />
          </mxGeometry>
        </mxCell>
        <mxCell id="WtuqhDMMWouuSi5TqvXi-89" value="" style="endArrow=none;rounded=0;exitX=0;exitY=0.75;exitDx=0;exitDy=0;entryX=1;entryY=0.5;entryDx=0;entryDy=0;fontStyle=1;fontSize=14;labelBorderColor=none;textShadow=0;html=1;" edge="1" parent="WIyWlLk6GJQsqaUBKTNV-1" source="WtuqhDMMWouuSi5TqvXi-74" target="WtuqhDMMWouuSi5TqvXi-104">
          <mxGeometry relative="1" as="geometry">
            <mxPoint x="720" y="660" as="sourcePoint" />
            <mxPoint x="650" y="730" as="targetPoint" />
            <Array as="points">
              <mxPoint x="640" y="650" />
            </Array>
          </mxGeometry>
        </mxCell>
        <mxCell id="WtuqhDMMWouuSi5TqvXi-90" value="1" style="resizable=0;whiteSpace=wrap;align=right;verticalAlign=bottom;fontStyle=1;fontSize=14;labelBorderColor=none;textShadow=0;html=1;" connectable="0" vertex="1" parent="WtuqhDMMWouuSi5TqvXi-89">
          <mxGeometry x="1" relative="1" as="geometry">
            <mxPoint x="20" as="offset" />
          </mxGeometry>
        </mxCell>
        <mxCell id="WtuqhDMMWouuSi5TqvXi-91" value="" style="endArrow=none;rounded=0;entryX=1;entryY=0.5;entryDx=0;entryDy=0;exitX=0;exitY=0.5;exitDx=0;exitDy=0;fontStyle=1;fontSize=14;labelBorderColor=none;textShadow=0;html=1;" edge="1" parent="WIyWlLk6GJQsqaUBKTNV-1" source="WtuqhDMMWouuSi5TqvXi-104" target="WtuqhDMMWouuSi5TqvXi-43">
          <mxGeometry relative="1" as="geometry">
            <mxPoint x="540" y="740" as="sourcePoint" />
            <mxPoint x="490" y="710" as="targetPoint" />
          </mxGeometry>
        </mxCell>
        <mxCell id="WtuqhDMMWouuSi5TqvXi-92" value="M" style="resizable=0;whiteSpace=wrap;align=left;verticalAlign=bottom;fontStyle=1;fontSize=14;labelBorderColor=none;textShadow=0;html=1;" connectable="0" vertex="1" parent="WtuqhDMMWouuSi5TqvXi-91">
          <mxGeometry x="-1" relative="1" as="geometry">
            <mxPoint x="-10" as="offset" />
          </mxGeometry>
        </mxCell>
        <mxCell id="WtuqhDMMWouuSi5TqvXi-96" value="" style="endArrow=none;rounded=0;exitX=0.25;exitY=1;exitDx=0;exitDy=0;entryX=0;entryY=0;entryDx=0;entryDy=0;fontStyle=1;fontSize=14;labelBorderColor=none;textShadow=0;html=1;" edge="1" parent="WIyWlLk6GJQsqaUBKTNV-1" source="WIyWlLk6GJQsqaUBKTNV-3" target="WtuqhDMMWouuSi5TqvXi-104">
          <mxGeometry relative="1" as="geometry">
            <mxPoint x="490" y="330" as="sourcePoint" />
            <mxPoint x="550" y="670" as="targetPoint" />
          </mxGeometry>
        </mxCell>
        <mxCell id="WtuqhDMMWouuSi5TqvXi-97" value="1" style="resizable=0;whiteSpace=wrap;align=right;verticalAlign=bottom;fontStyle=1;fontSize=14;labelBorderColor=none;textShadow=0;html=1;" connectable="0" vertex="1" parent="WtuqhDMMWouuSi5TqvXi-96">
          <mxGeometry x="1" relative="1" as="geometry" />
        </mxCell>
        <mxCell id="WtuqhDMMWouuSi5TqvXi-98" value="&amp;quot;tiene&amp;quot;" style="rhombus;fillColor=#ffe6cc;strokeColor=#d79b00;fontStyle=1;fontSize=14;labelBorderColor=none;textShadow=0;whiteSpace=wrap;html=1;" vertex="1" parent="WIyWlLk6GJQsqaUBKTNV-1">
          <mxGeometry x="490" y="330" width="80" height="80" as="geometry" />
        </mxCell>
        <mxCell id="WtuqhDMMWouuSi5TqvXi-99" value="" style="endArrow=none;rounded=0;entryX=1;entryY=0;entryDx=0;entryDy=0;exitX=0.003;exitY=0.828;exitDx=0;exitDy=0;exitPerimeter=0;fontStyle=1;fontSize=14;labelBorderColor=none;textShadow=0;html=1;" edge="1" parent="WIyWlLk6GJQsqaUBKTNV-1" source="WIyWlLk6GJQsqaUBKTNV-3" target="WtuqhDMMWouuSi5TqvXi-98">
          <mxGeometry relative="1" as="geometry">
            <mxPoint x="550" y="200" as="sourcePoint" />
            <mxPoint x="650" y="260" as="targetPoint" />
          </mxGeometry>
        </mxCell>
        <mxCell id="WtuqhDMMWouuSi5TqvXi-100" value="1" style="resizable=0;whiteSpace=wrap;align=right;verticalAlign=bottom;fontStyle=1;fontSize=14;labelBorderColor=none;textShadow=0;html=1;" connectable="0" vertex="1" parent="WtuqhDMMWouuSi5TqvXi-99">
          <mxGeometry x="1" relative="1" as="geometry">
            <mxPoint y="-30" as="offset" />
          </mxGeometry>
        </mxCell>
        <mxCell id="WtuqhDMMWouuSi5TqvXi-101" value="" style="endArrow=none;rounded=0;exitX=1;exitY=0.5;exitDx=0;exitDy=0;entryX=0;entryY=0.5;entryDx=0;entryDy=0;fontStyle=1;fontSize=14;labelBorderColor=none;textShadow=0;html=1;" edge="1" parent="WIyWlLk6GJQsqaUBKTNV-1" source="WtuqhDMMWouuSi5TqvXi-31" target="WtuqhDMMWouuSi5TqvXi-98">
          <mxGeometry relative="1" as="geometry">
            <mxPoint x="410" y="440" as="sourcePoint" />
            <mxPoint x="570" y="440" as="targetPoint" />
          </mxGeometry>
        </mxCell>
        <mxCell id="WtuqhDMMWouuSi5TqvXi-102" value="1" style="resizable=0;whiteSpace=wrap;align=right;verticalAlign=bottom;fontStyle=1;fontSize=14;labelBorderColor=none;textShadow=0;html=1;" connectable="0" vertex="1" parent="WtuqhDMMWouuSi5TqvXi-101">
          <mxGeometry x="1" relative="1" as="geometry" />
        </mxCell>
        <mxCell id="WtuqhDMMWouuSi5TqvXi-103" value="&amp;quot;tiene&amp;quot;" style="rhombus;fillColor=#ffe6cc;strokeColor=#d79b00;fontStyle=1;fontSize=14;labelBorderColor=none;textShadow=0;whiteSpace=wrap;html=1;" vertex="1" parent="WIyWlLk6GJQsqaUBKTNV-1">
          <mxGeometry x="600" y="330" width="80" height="80" as="geometry" />
        </mxCell>
        <mxCell id="WtuqhDMMWouuSi5TqvXi-104" value="&amp;quot;tiene&amp;quot;" style="rhombus;fillColor=#ffe6cc;strokeColor=#d79b00;fontStyle=1;fontSize=14;labelBorderColor=none;textShadow=0;whiteSpace=wrap;html=1;" vertex="1" parent="WIyWlLk6GJQsqaUBKTNV-1">
          <mxGeometry x="560" y="690" width="80" height="80" as="geometry" />
        </mxCell>
      </root>
    </mxGraphModel>
  </diagram>
</mxfile>
